<svg width="21" height="20" viewBox="0 0 21 20" fill="none" xmlns="http://www.w3.org/2000/svg">
<path d="M9.02957 7.07764C9.41629 3.98391 12.3267 4.06811 13.875 4.52894C13.978 4.5596 14.0932 4.57184 14.1754 4.64112C14.34 4.77986 14.5293 5.17301 14.5293 6.07764C14.5293 7.57763 14.0296 7.07764 13.0293 7.07764C12.0293 7.07763 12.0293 8.57683 12.0293 9.0773V9.07771C12.0293 9.57778 13.5293 9.07764 14.5293 9.57764C15.5293 10.0776 14.0293 10.5776 14.0296 11.5776C14.0298 12.5776 12.5293 12.0777 12.0293 12.0777C11.7032 12.0777 11.798 14.2928 11.9345 16.0144C11.9802 16.5906 12.5167 17.0036 13.0635 16.8162C15.4868 15.9859 17.0892 13.838 17.5293 12.0777C18.0293 10.0778 18.0293 7.57771 17.0293 5.57771C16.0293 3.57771 12.0293 1.57771 9.0293 2.07771C6.0293 2.57771 3.52957 5.07771 3.02957 10.0777C2.52957 15.0777 8.52957 17.0777 9.02957 17.0777C9.52957 17.0777 9.02957 12.5777 9.02957 12.0777C9.02957 11.8796 8.70237 11.8368 8.2911 11.8644C7.64199 11.908 7.02957 11.4475 7.02957 10.7969V10.0777C7.02957 9.52542 7.47728 9.07771 8.02957 9.07771C8.58185 9.07771 9.02957 8.63038 9.02957 8.0781V7.07764Z" stroke="white"/>
</svg>
