<svg width="141" height="178" viewBox="0 0 141 178" fill="none" xmlns="http://www.w3.org/2000/svg">
<mask id="mask0_1204_6963" style="mask-type:luminance" maskUnits="userSpaceOnUse" x="0" y="0" width="141" height="178">
<path d="M133.67 15.7794C135.831 18.2984 137.452 21.2313 138.748 24.2743C140.047 27.3247 141.262 30.8448 139.904 34.0904C138.862 36.5815 136.596 38.3386 134.112 39.259C132.924 39.6979 131.7 39.9239 130.467 39.9782C132.102 41.1379 133.843 42.346 135.229 43.7919C136.354 44.9663 137.302 46.7425 136.161 48.2383C135.291 49.3789 133.711 49.7106 132.32 49.7106C132.657 53.0561 131.288 56.3574 128.568 58.5373C125.811 60.7466 122.279 61.3748 119.08 60.2166C120.059 63.267 120.981 66.5273 120.641 69.6554C120.353 72.2918 118.938 74.8695 116.453 75.9382C118.307 78.9078 119.392 82.3046 119.616 85.8027C119.731 87.5671 119.615 89.3477 119.28 91.0843C118.906 93.019 118.167 94.8407 117.589 96.7168C117.014 98.5796 116.686 100.454 117.015 102.396C117.316 104.175 117.947 105.883 118.197 107.672C118.624 110.74 117.57 113.68 115.814 116.17C112.027 121.543 105.546 124.29 101.997 129.854C99.178 134.272 98.518 139.538 97.773 144.749C98.725 145.275 99.503 146.151 99.975 147.18C101.122 149.678 100.339 152.542 99.464 154.994C98.275 158.323 95.156 166.668 90.293 162.887C88.577 161.552 87.827 159.396 88.183 157.281C88.622 154.688 90.325 152.533 91.922 150.534C92.113 150.295 92.445 150.473 92.536 150.697C93.508 153.128 93.604 155.801 92.875 158.269C95.442 154.452 96.272 149.727 96.954 145.172C96.307 144.925 95.58 144.875 94.811 145.106C92.554 145.784 90.86 148.176 89.554 150.021L89.496 150.104C87.471 152.962 85.59 156.485 83.364 159.649C84.985 161.922 86.855 164.032 88.643 166.154L88.806 166.348C91.793 169.896 94.78 173.444 97.767 176.991C98.07 177.35 97.553 177.871 97.248 177.51C93.32 172.844 89.356 168.204 85.463 163.506C84.588 162.451 83.73 161.373 82.927 160.259C79.91 164.394 76.233 167.776 70.76 168C70.485 168.011 70.298 167.678 70.443 167.448C73.039 163.29 76.673 159.533 80.163 155.676C79.611 154.514 79.156 153.303 78.833 152.029C77.876 148.247 77.987 144.21 79.056 140.464C80.11 136.769 82.138 133.13 85.052 130.578C86.304 129.481 87.998 129.193 89.011 130.757C89.808 131.985 89.535 133.312 88.963 134.531C89.359 134.4 89.786 134.356 90.221 134.409C90.632 134.46 91.322 134.639 91.571 135.009C91.871 135.454 91.561 136.637 91.496 137.136C90.52 144.643 85.937 150.317 81.008 155.783C81.573 156.917 82.227 157.997 82.94 159.039C83.556 158.167 84.132 157.282 84.669 156.412C86.18 153.962 87.589 151.44 89.303 149.122C90.698 147.239 92.454 144.897 94.868 144.331C95.638 144.149 96.382 144.204 97.064 144.435C97.12 144.056 97.176 143.679 97.233 143.305C98.024 138.022 98.951 132.483 102.308 128.145C106.232 123.074 112.522 120.331 115.867 114.747C116.683 113.387 117.29 111.886 117.494 110.306C117.725 108.518 117.326 106.793 116.88 105.071C116.448 103.4 116.03 101.723 116.159 99.9814C116.281 98.3241 116.795 96.7314 117.326 95.1666C118.418 91.943 119.141 88.7987 118.85 85.3696C118.565 82.0081 117.433 78.7654 115.59 75.9426C115.453 75.7341 115.596 75.4758 115.808 75.4038C119.578 74.1267 120.322 69.6701 119.789 66.2293C119.456 64.0861 118.876 61.9517 118.211 59.854C117.887 59.6999 117.565 59.5267 117.251 59.3329C113.533 57.043 111.296 52.9151 109.416 49.1176C106.666 43.5659 103.956 37.9951 101.226 32.4331C101.129 32.2334 101.198 31.9457 101.446 31.8944C101.715 31.8371 101.975 31.8077 102.231 31.7989C102.019 31.6903 101.895 31.4114 102.126 31.2279C102.789 30.7024 103.404 30.1299 103.972 29.5236C103.686 29.4957 103.4 29.4693 103.112 29.4458C102.96 29.5941 102.797 29.7336 102.619 29.8613C101.214 30.88 99.351 30.927 97.753 30.375C94.896 29.3901 93.422 26.9827 92.574 24.3052C92.435 24.2831 92.301 24.2009 92.247 24.06C89.891 17.9828 81.217 15.6194 76.107 19.6724C75.891 19.8441 75.586 19.7927 75.495 19.5109C74.197 15.5049 69.347 14.793 65.755 15.317C63.535 15.64 61.376 16.28 59.162 16.6381C57.126 16.967 55.066 17.1049 53.008 17.2048C49.234 17.3868 45.401 17.4249 41.724 18.3953C38.284 19.3024 35.403 21.2034 32.566 23.282C29.915 25.2226 27.252 27.2454 24.116 28.3405C22.49 28.9086 20.724 29.1772 19.229 30.0727C17.573 31.065 16.754 32.8045 16.205 34.5836C15.029 38.39 14.163 42.3152 13.159 46.17C12.735 47.8009 12.494 49.7576 11.489 51.1595C10.625 52.3632 9.20201 52.9871 8.17401 54.0264C4.37301 57.8723 4.653 64.9859 8.75 68.4972C8.899 68.0657 9.05198 67.6356 9.21198 67.2069C9.21998 67.1864 9.22999 67.1687 9.23999 67.1497C10.048 64.1331 13.314 62.4949 16.155 61.6508C19.576 60.6335 24.066 60.1638 25.799 56.5409C25.896 56.3384 26.231 56.2929 26.376 56.4661C28.468 58.9718 31.499 60.6233 34.756 60.9565C37.908 61.2794 41.131 59.8834 44.091 61.5011C46.115 62.6079 47.527 64.5309 49.088 66.1691C49.903 67.0234 50.774 67.844 51.803 68.4356C53.159 69.2151 54.711 69.4631 56.244 69.6305C59.021 69.9343 61.646 70.2661 63.964 71.966C66.188 73.5968 67.465 75.8105 68.284 78.3999C68.802 80.0366 69.455 81.531 70.352 82.9975C71.191 84.3685 72.07 85.7131 72.895 87.093C74.56 89.8806 76.102 92.7416 77.52 95.6628C80.092 100.965 82.244 106.464 83.963 112.098C84.71 109.291 86.594 106.834 89.041 105.282C88.948 104.763 88.872 104.241 88.826 103.716C88.672 101.959 88.91 100.13 90.012 98.6999C90.865 97.5931 92.207 96.7241 93.65 96.7975C95.025 96.8679 96.145 97.7443 96.831 98.8981C97.492 100.008 98.096 101.761 97.829 103.066C97.511 104.611 95.701 104.268 94.5 104.287C94.663 104.394 94.82 104.515 94.968 104.651C95.639 105.272 96.463 106.881 95.571 107.685C95.077 108.13 93.945 108.196 93.306 108.225C92.498 108.264 91.668 108.146 90.905 107.879C90.5 107.738 89.86 107.541 89.559 107.226C89.353 107.01 89.34 106.777 89.277 106.482C89.271 106.454 89.265 106.427 89.259 106.401C89.093 106.593 88.936 106.79 88.787 106.984C87.819 108.236 86.666 109.755 88.082 111.157C89.217 112.28 90.977 112.347 92.414 111.854C95.451 110.812 96.835 107.638 97.55 104.751C97.942 103.164 98.206 101.473 97.888 99.8493C97.612 98.4357 96.834 97.2526 96.002 96.1076C94.675 94.2859 93.052 92.3511 93.574 89.9437C93.599 89.8263 93.712 89.7118 93.829 89.6868C94.946 89.452 96.081 89.3228 97.223 89.3375C98.14 89.3492 99.419 89.3257 100.241 89.8131C100.987 90.2549 101.059 91.1034 101.092 91.8902C101.194 94.324 101.276 96.7652 101.18 99.202C101.012 103.494 100.225 107.842 98.014 111.584C95.928 115.116 92.703 117.564 88.763 118.698C87.721 118.997 86.654 119.206 85.578 119.349C84.624 119.477 83.493 119.427 82.642 119.942C81.648 120.546 81.481 122.012 81.212 123.035C80.892 124.249 80.572 125.463 80.252 126.676C79.624 129.066 79.023 131.466 78.357 133.845C77.801 135.83 77.114 137.832 75.881 139.51C74.631 141.211 72.898 142.444 71.157 143.598C69.196 144.899 67.201 146.148 65.178 147.35C61.085 149.781 56.874 152.011 52.562 154.028C50.439 155.02 48.292 155.961 46.124 156.852C45.725 157.015 45.305 157.181 44.882 157.357C54.604 154.926 63.383 149.809 71.845 144.574C72.014 144.47 72.249 144.538 72.347 144.706C73.297 146.334 70.869 147.647 70.002 148.665C68.677 150.221 67.968 152.202 67.49 154.16C66.966 156.31 66.683 158.518 66.336 160.701C65.932 163.252 65.529 165.804 65.127 168.353C65.097 168.537 64.871 168.65 64.699 168.615C64.704 169.073 63.986 169.065 63.967 168.6C63.964 168.528 63.955 168.461 63.948 168.393C63.032 168.123 62.113 167.869 61.188 167.636C56.448 166.441 51.588 165.735 46.704 165.538C44.905 165.466 42.644 165.754 41.1 164.619C40.714 164.334 40.426 163.985 40.221 163.597C37.769 163.558 35.316 163.547 32.863 163.539C29.278 163.527 25.673 163.542 22.115 164.036C15.65 164.935 9.5 167.352 1.5 177.352H0.5C6.5 169.352 12.721 165.817 15.704 164.789C19.075 163.627 22.618 163.12 26.168 162.925C29.911 162.719 33.672 162.799 37.42 162.83C38.261 162.837 39.102 162.847 39.943 162.859C39.746 162.054 39.836 161.166 40.157 160.366C40.383 159.806 40.707 159.321 41.097 158.897C36.487 159.674 31.555 159.901 26.989 158.849C25.141 158.421 23.281 157.692 21.878 156.378C20.418 155.01 19.775 153.134 19.71 151.165C19.635 148.903 20.18 146.674 20.169 144.413C20.166 143.865 20.134 143.299 20.041 142.745C18.434 141.956 17.062 140.745 16.225 139.086C16.127 138.892 16.197 138.593 16.445 138.547C18.702 138.126 20.244 140.269 20.68 142.236C22.291 142.952 24.131 143.23 25.882 143.109C29.836 142.841 33.361 140.639 36.59 138.435C36.208 138.33 35.824 138.228 35.439 138.135C29.02 137.763 22.58 137.882 16.176 138.49C15.752 138.529 15.695 137.878 16.079 137.769C16.126 137.755 16.173 137.743 16.22 137.73L16.229 137.728C17.292 135.761 18.354 133.792 19.416 131.825C19.555 131.568 19.902 131.608 20.05 131.825C20.348 132.266 20.807 132.439 21.324 132.48C21.232 130.865 20.226 129.261 20.301 127.602C20.319 127.209 20.387 126.812 20.496 126.429C20.453 126.41 20.411 126.382 20.372 126.34C18.92 124.794 16.665 124.561 14.841 123.649C12.839 122.648 11.97 120.773 12.449 118.577C12.947 116.284 14.336 114.153 15.415 112.099C16.583 109.877 17.741 107.619 18.429 105.194C18.785 103.942 18.988 102.661 19.001 101.38C18.64 102.785 17.356 103.387 15.921 103.488C14.172 103.613 12.301 103.518 10.753 102.634C8.59699 107.593 8.19902 113.009 9.18402 118.309C10.19 123.721 12.357 128.829 14.519 133.861C14.703 134.29 14.071 134.664 13.885 134.231C11.628 128.979 9.34802 123.64 8.38202 117.973C7.45302 112.525 7.96801 107.032 10.247 101.975C9.66501 101.043 9.06001 100.12 8.505 99.1711C8.08201 98.4489 7.68601 97.599 7.94501 96.7476C8.36801 95.3604 10.196 94.8129 11.463 94.6308C13.919 94.2815 16.459 95.1534 18.19 96.8885C17.912 96.1634 17.574 95.4646 17.188 94.7894C17.073 94.8378 16.933 94.8261 16.81 94.7101L14.947 92.9618C13.319 91.692 11.421 90.7907 9.38202 90.3562C7.70602 89.998 4.00001 90.3768 4.54401 87.5921C4.81401 86.2108 5.87698 85.4093 7.09998 85.2537C6.67598 84.5858 6.37 83.8489 6.263 82.9989C6.099 81.6939 6.25797 80.3464 6.39697 79.0443C6.53697 77.7364 6.72898 76.4314 6.97498 75.1396C7.35498 73.1374 7.86901 71.1645 8.50201 69.2297C3.86201 65.4351 3.44302 57.5567 7.80902 53.3555C9.19602 52.0212 10.889 51.3459 11.54 49.3833C12.214 47.3517 12.649 45.2158 13.189 43.1446L14.88 36.649C15.333 34.9095 15.75 33.0863 16.723 31.5494C18.72 28.3933 22.657 28.3757 25.731 26.874C28.975 25.2901 31.705 22.8754 34.691 20.8819C37.829 18.7857 41.192 17.5351 44.934 17.0301C48.956 16.4855 53.029 16.6103 57.062 16.1816C61.154 15.7471 65.29 13.9753 69.442 14.4729C72.176 14.8003 74.925 16.2271 76.02 18.8312C81.04 15.2803 88.662 16.9552 91.987 21.9946C91.884 21.4882 91.794 20.9818 91.715 20.4856C91.222 17.3897 90.723 14.1749 90.852 11.0101C90.807 10.5888 90.761 10.1675 90.717 9.74621C90.603 8.67461 90.426 7.58102 90.564 6.50208C90.726 5.24993 91.477 4.25762 92.539 3.9699C92.917 3.24915 93.371 2.57683 93.913 1.997C95.472 0.329432 97.249 0.736048 99.139 1.61533C99.31 1.69607 99.481 1.7812 99.649 1.8678C101.266 1.76211 102.945 2.77795 104.005 3.88917C104.943 4.87269 105.587 6.05143 106.001 7.31531C106.55 8.0669 107.043 8.85665 107.472 9.67869C108.607 11.8586 109.223 14.2131 109.363 16.5809C111.334 13.8197 113.592 11.198 116.906 10.0677C123.072 7.96413 129.649 11.0923 133.67 15.7794Z" fill="white"/>
</mask>
<g mask="url(#mask0_1204_6963)">
<path d="M133.67 15.7794C135.831 18.2984 137.452 21.2313 138.748 24.2743C140.047 27.3247 141.262 30.8448 139.904 34.0904C138.862 36.5815 136.596 38.3386 134.112 39.259C132.924 39.6979 131.7 39.9239 130.467 39.9782C132.102 41.1379 133.843 42.346 135.229 43.7919C136.354 44.9663 137.302 46.7425 136.161 48.2383C135.291 49.3789 133.711 49.7106 132.32 49.7106C132.657 53.0561 131.288 56.3574 128.568 58.5373C125.811 60.7466 122.279 61.3748 119.08 60.2166C120.059 63.267 120.981 66.5273 120.641 69.6554C120.353 72.2918 118.938 74.8695 116.453 75.9382C118.307 78.9078 119.392 82.3046 119.616 85.8027C119.731 87.5671 119.615 89.3477 119.28 91.0843C118.906 93.019 118.167 94.8407 117.589 96.7168C117.014 98.5796 116.686 100.454 117.015 102.396C117.316 104.175 117.947 105.883 118.197 107.672C118.624 110.74 117.57 113.68 115.814 116.17C112.027 121.543 105.546 124.29 101.997 129.854C99.178 134.272 98.518 139.538 97.773 144.749C98.725 145.275 99.503 146.151 99.975 147.18C101.122 149.678 100.339 152.542 99.464 154.994C98.275 158.323 95.156 166.668 90.293 162.887C88.577 161.552 87.827 159.396 88.183 157.281C88.622 154.688 90.325 152.533 91.922 150.534C92.113 150.295 92.445 150.473 92.536 150.697C93.508 153.128 93.604 155.801 92.875 158.269C95.442 154.452 96.272 149.727 96.954 145.172C96.307 144.925 95.58 144.875 94.811 145.106C92.554 145.784 90.86 148.176 89.554 150.021L89.496 150.104C87.471 152.962 85.59 156.485 83.364 159.649C84.985 161.922 86.855 164.032 88.643 166.154L88.806 166.348C91.793 169.896 94.78 173.444 97.767 176.991C98.07 177.35 97.553 177.871 97.248 177.51C93.32 172.844 89.356 168.204 85.463 163.506C84.588 162.451 83.73 161.373 82.927 160.259C79.91 164.394 76.233 167.776 70.76 168C70.485 168.011 70.298 167.678 70.443 167.448C73.039 163.29 76.673 159.533 80.163 155.676C79.611 154.514 79.156 153.303 78.833 152.029C77.876 148.247 77.987 144.21 79.056 140.464C80.11 136.769 82.138 133.13 85.052 130.578C86.304 129.481 87.998 129.193 89.011 130.757C89.808 131.985 89.535 133.312 88.963 134.531C89.359 134.4 89.786 134.356 90.221 134.409C90.632 134.46 91.322 134.639 91.571 135.009C91.871 135.454 91.561 136.637 91.496 137.136C90.52 144.643 85.937 150.317 81.008 155.783C81.573 156.917 82.227 157.997 82.94 159.039C83.556 158.167 84.132 157.282 84.669 156.412C86.18 153.962 87.589 151.44 89.303 149.122C90.698 147.239 92.454 144.897 94.868 144.331C95.638 144.149 96.382 144.204 97.064 144.435C97.12 144.056 97.176 143.679 97.233 143.305C98.024 138.022 98.951 132.483 102.308 128.145C106.232 123.074 112.522 120.331 115.867 114.747C116.683 113.387 117.29 111.886 117.494 110.306C117.725 108.518 117.326 106.793 116.88 105.071C116.448 103.4 116.03 101.723 116.159 99.9814C116.281 98.3241 116.795 96.7314 117.326 95.1666C118.418 91.943 119.141 88.7987 118.85 85.3696C118.565 82.0081 117.433 78.7654 115.59 75.9426C115.453 75.7341 115.596 75.4758 115.808 75.4038C119.578 74.1267 120.322 69.6701 119.789 66.2293C119.456 64.0861 118.876 61.9517 118.211 59.854C117.887 59.6999 117.565 59.5267 117.251 59.3329C113.533 57.043 111.296 52.9151 109.416 49.1176C106.666 43.5659 103.956 37.9951 101.226 32.4331C101.129 32.2334 101.198 31.9457 101.446 31.8944C101.715 31.8371 101.975 31.8077 102.231 31.7989C102.019 31.6903 101.895 31.4114 102.126 31.2279C102.789 30.7024 103.404 30.1299 103.972 29.5236C103.686 29.4957 103.4 29.4693 103.112 29.4458C102.96 29.5941 102.797 29.7336 102.619 29.8613C101.214 30.88 99.351 30.927 97.753 30.375C94.896 29.3901 93.422 26.9827 92.574 24.3052C92.435 24.2831 92.301 24.2009 92.247 24.06C89.891 17.9828 81.217 15.6194 76.107 19.6724C75.891 19.8441 75.586 19.7927 75.495 19.5109C74.197 15.5049 69.347 14.793 65.755 15.317C63.535 15.64 61.376 16.28 59.162 16.6381C57.126 16.967 55.066 17.1049 53.008 17.2048C49.234 17.3868 45.401 17.4249 41.724 18.3953C38.284 19.3024 35.403 21.2034 32.566 23.282C29.915 25.2226 27.252 27.2454 24.116 28.3405C22.49 28.9086 20.724 29.1772 19.229 30.0727C17.573 31.065 16.754 32.8045 16.205 34.5836C15.029 38.39 14.163 42.3152 13.159 46.17C12.735 47.8009 12.494 49.7576 11.489 51.1595C10.625 52.3632 9.20201 52.9871 8.17401 54.0264C4.37301 57.8723 4.653 64.9859 8.75 68.4972C8.899 68.0657 9.05198 67.6356 9.21198 67.2069C9.21998 67.1864 9.22999 67.1687 9.23999 67.1497C10.048 64.1331 13.314 62.4949 16.155 61.6508C19.576 60.6335 24.066 60.1638 25.799 56.5409C25.896 56.3384 26.231 56.2929 26.376 56.4661C28.468 58.9718 31.499 60.6233 34.756 60.9565C37.908 61.2794 41.131 59.8834 44.091 61.5011C46.115 62.6079 47.527 64.5309 49.088 66.1691C49.903 67.0234 50.774 67.844 51.803 68.4356C53.159 69.2151 54.711 69.4631 56.244 69.6305C59.021 69.9343 61.646 70.2661 63.964 71.966C66.188 73.5968 67.465 75.8105 68.284 78.3999C68.802 80.0366 69.455 81.531 70.352 82.9975C71.191 84.3685 72.07 85.7131 72.895 87.093C74.56 89.8806 76.102 92.7416 77.52 95.6628C80.092 100.965 82.244 106.464 83.963 112.098C84.71 109.291 86.594 106.834 89.041 105.282C88.948 104.763 88.872 104.241 88.826 103.716C88.672 101.959 88.91 100.13 90.012 98.6999C90.865 97.5931 92.207 96.7241 93.65 96.7975C95.025 96.8679 96.145 97.7443 96.831 98.8981C97.492 100.008 98.096 101.761 97.829 103.066C97.511 104.611 95.701 104.268 94.5 104.287C94.663 104.394 94.82 104.515 94.968 104.651C95.639 105.272 96.463 106.881 95.571 107.685C95.077 108.13 93.945 108.196 93.306 108.225C92.498 108.264 91.668 108.146 90.905 107.879C90.5 107.738 89.86 107.541 89.559 107.226C89.353 107.01 89.34 106.777 89.277 106.482C89.271 106.454 89.265 106.427 89.259 106.401C89.093 106.593 88.936 106.79 88.787 106.984C87.819 108.236 86.666 109.755 88.082 111.157C89.217 112.28 90.977 112.347 92.414 111.854C95.451 110.812 96.835 107.638 97.55 104.751C97.942 103.164 98.206 101.473 97.888 99.8493C97.612 98.4357 96.834 97.2526 96.002 96.1076C94.675 94.2859 93.052 92.3511 93.574 89.9437C93.599 89.8263 93.712 89.7118 93.829 89.6868C94.946 89.452 96.081 89.3228 97.223 89.3375C98.14 89.3492 99.419 89.3257 100.241 89.8131C100.987 90.2549 101.059 91.1034 101.092 91.8902C101.194 94.324 101.276 96.7652 101.18 99.202C101.012 103.494 100.225 107.842 98.014 111.584C95.928 115.116 92.703 117.564 88.763 118.698C87.721 118.997 86.654 119.206 85.578 119.349C84.624 119.477 83.493 119.427 82.642 119.942C81.648 120.546 81.481 122.012 81.212 123.035C80.892 124.249 80.572 125.463 80.252 126.676C79.624 129.066 79.023 131.466 78.357 133.845C77.801 135.83 77.114 137.832 75.881 139.51C74.631 141.211 72.898 142.444 71.157 143.598C69.196 144.899 67.201 146.148 65.178 147.35C61.085 149.781 56.874 152.011 52.562 154.028C50.439 155.02 48.292 155.961 46.124 156.852C45.725 157.015 45.305 157.181 44.882 157.357C54.604 154.926 63.383 149.809 71.845 144.574C72.014 144.47 72.249 144.538 72.347 144.706C73.297 146.334 70.869 147.647 70.002 148.665C68.677 150.221 67.968 152.202 67.49 154.16C66.966 156.31 66.683 158.518 66.336 160.701C65.932 163.252 65.529 165.804 65.127 168.353C65.097 168.537 64.871 168.65 64.699 168.615C64.704 169.073 63.986 169.065 63.967 168.6C63.964 168.528 63.955 168.461 63.948 168.393C63.032 168.123 62.113 167.869 61.188 167.636C56.448 166.441 51.588 165.735 46.704 165.538C44.905 165.466 42.644 165.754 41.1 164.619C40.714 164.334 40.426 163.985 40.221 163.597C37.769 163.558 35.316 163.547 32.863 163.539C29.278 163.527 25.673 163.542 22.115 164.036C15.65 164.935 9.5 167.352 1.5 177.352H0.5C6.5 169.352 12.721 165.817 15.704 164.789C19.075 163.627 22.618 163.12 26.168 162.925C29.911 162.719 33.672 162.799 37.42 162.83C38.261 162.837 39.102 162.847 39.943 162.859C39.746 162.054 39.836 161.166 40.157 160.366C40.383 159.806 40.707 159.321 41.097 158.897C36.487 159.674 31.555 159.901 26.989 158.849C25.141 158.421 23.281 157.692 21.878 156.378C20.418 155.01 19.775 153.134 19.71 151.165C19.635 148.903 20.18 146.674 20.169 144.413C20.166 143.865 20.134 143.299 20.041 142.745C18.434 141.956 17.062 140.745 16.225 139.086C16.127 138.892 16.197 138.593 16.445 138.547C18.702 138.126 20.244 140.269 20.68 142.236C22.291 142.952 24.131 143.23 25.882 143.109C29.836 142.841 33.361 140.639 36.59 138.435C36.208 138.33 35.824 138.228 35.439 138.135C29.02 137.763 22.58 137.882 16.176 138.49C15.752 138.529 15.695 137.878 16.079 137.769C16.126 137.755 16.173 137.743 16.22 137.73L16.229 137.728C17.292 135.761 18.354 133.792 19.416 131.825C19.555 131.568 19.902 131.608 20.05 131.825C20.348 132.266 20.807 132.439 21.324 132.48C21.232 130.865 20.226 129.261 20.301 127.602C20.319 127.209 20.387 126.812 20.496 126.429C20.453 126.41 20.411 126.382 20.372 126.34C18.92 124.794 16.665 124.561 14.841 123.649C12.839 122.648 11.97 120.773 12.449 118.577C12.947 116.284 14.336 114.153 15.415 112.099C16.583 109.877 17.741 107.619 18.429 105.194C18.785 103.942 18.988 102.661 19.001 101.38C18.64 102.785 17.356 103.387 15.921 103.488C14.172 103.613 12.301 103.518 10.753 102.634C8.59699 107.593 8.19902 113.009 9.18402 118.309C10.19 123.721 12.357 128.829 14.519 133.861C14.703 134.29 14.071 134.664 13.885 134.231C11.628 128.979 9.34802 123.64 8.38202 117.973C7.45302 112.525 7.96801 107.032 10.247 101.975C9.66501 101.043 9.06 100.12 8.505 99.1711C8.082 98.4489 7.68601 97.599 7.94501 96.7476C8.36801 95.3604 10.196 94.8129 11.463 94.6308C13.919 94.2815 16.459 95.1534 18.19 96.8885C17.912 96.1634 17.574 95.4646 17.188 94.7894C17.073 94.8378 16.933 94.8261 16.81 94.7101L14.947 92.9618C13.319 91.692 11.421 90.7907 9.38202 90.3562C7.70602 89.998 4.00001 90.3768 4.54401 87.5921C4.81401 86.2108 5.87698 85.4093 7.09998 85.2537C6.67598 84.5858 6.37 83.8489 6.263 82.9989C6.099 81.6939 6.25797 80.3464 6.39697 79.0443C6.53697 77.7364 6.72898 76.4314 6.97498 75.1396C7.35498 73.1374 7.86901 71.1645 8.50201 69.2297C3.86201 65.4351 3.44302 57.5567 7.80902 53.3555C9.19602 52.0212 10.889 51.3459 11.54 49.3833C12.214 47.3517 12.649 45.2158 13.189 43.1446L14.88 36.649C15.333 34.9095 15.75 33.0863 16.723 31.5494C18.72 28.3933 22.657 28.3757 25.731 26.874C28.975 25.2901 31.705 22.8754 34.691 20.8819C37.829 18.7857 41.192 17.5351 44.934 17.0301C48.956 16.4855 53.029 16.6103 57.062 16.1816C61.154 15.7471 65.29 13.9753 69.442 14.4729C72.176 14.8003 74.925 16.2271 76.02 18.8312C81.04 15.2803 88.662 16.9552 91.987 21.9946C91.884 21.4882 91.794 20.9818 91.715 20.4856C91.222 17.3897 90.723 14.1749 90.852 11.0101C90.807 10.5888 90.761 10.1675 90.717 9.74621C90.603 8.67461 90.426 7.58102 90.564 6.50208C90.726 5.24993 91.477 4.25762 92.539 3.9699C92.917 3.24915 93.371 2.57683 93.913 1.997C95.472 0.329432 97.249 0.736048 99.139 1.61533C99.31 1.69607 99.481 1.7812 99.649 1.8678C101.266 1.76211 102.945 2.77795 104.005 3.88917C104.943 4.87269 105.587 6.05143 106.001 7.31531C106.55 8.0669 107.043 8.85665 107.472 9.67869C108.607 11.8586 109.223 14.2131 109.363 16.5809C111.334 13.8197 113.592 11.198 116.906 10.0677C123.072 7.96413 129.649 11.0923 133.67 15.7794Z" stroke="black"/>
</g>
</svg>
