<svg width="207" height="265" viewBox="0 0 207 265" fill="none" xmlns="http://www.w3.org/2000/svg">
<rect x="1" y="258.754" width="141" height="6" fill="#F5F5F5"/>
<path d="M26.3107 144.579C22.363 142.359 14.1715 139.25 12.9872 144.579C11.5068 151.241 21.8695 156.423 26.3107 152.722C30.7519 149.021 26.3118 143.839 21.1304 144.579C16.9854 145.172 15.9491 148.28 15.9491 149.761V151.825C15.9491 152.41 15.7687 152.976 15.5129 153.502C14.4745 155.636 12.9872 160.557 12.9872 168.266C12.9872 177.148 18.416 192.199 21.1304 198.614" stroke="black" stroke-width="1.29059"/>
<path d="M43.9316 136.573C44.9186 135.093 47.7806 131.984 51.3336 131.392C55.7747 130.652 60.2159 127.691 67.6178 128.431C73.5394 129.023 83.4086 133.613 87.603 135.833C85.3825 134.846 79.4609 133.02 73.5394 133.613C66.1374 134.353 65.3972 135.093 62.4365 135.833C59.4757 136.573 50.5934 135.833 50.5934 141.015C50.5934 146.196 50.5934 149.897 53.5542 150.637C56.5149 151.377 63.9169 153.598 67.6178 152.858C71.3188 152.117 75.76 148.417 78.7207 149.157C79.8375 149.436 80.533 149.083 80.7279 148.417M80.7279 148.417C81.0497 147.316 80.0064 145.358 77.2403 143.975C72.7992 141.755 58.7355 135.833 55.0345 144.716C51.3336 153.598 53.5542 148.417 55.7747 146.196C57.9953 143.975 63.1767 141.755 71.3188 144.716C77.8325 147.084 80.3056 148.17 80.7279 148.417Z" stroke="black" stroke-width="1.29059"/>
<path d="M1 261.548C5.19443 256.613 15.5078 246.152 23.2058 243.783C30.9038 241.415 36.776 240.823 38.7499 240.823C54.5407 240.576 87.0105 240.823 90.5634 243.783C91.2552 244.36 91.8459 244.89 92.3487 245.372C93.8887 246.851 92.7946 248.05 90.7638 247.391C85.5552 245.699 77.477 243.783 69.0978 243.783C55.0341 243.783 57.9949 236.381 63.9164 231.94C69.838 227.499 79.4605 228.239 95.0046 217.877C110.549 207.514 112.769 207.514 115.73 196.411C118.691 185.308 119.431 176.426 121.652 176.426C123.872 176.426 130.534 175.686 136.455 171.985C142.377 168.284 147.558 160.141 148.298 150.519C149.039 140.896 149.039 134.235 148.298 133.495C147.558 132.754 138.676 131.274 138.676 133.495C138.676 135.715 138.676 137.195 141.637 140.896C144.598 144.597 146.818 148.298 144.598 156.44C142.377 164.582 132.754 168.283 129.794 165.322C126.833 162.362 129.053 154.96 134.975 154.22C140.897 153.479 141.637 156.44 140.897 157.921C140.156 159.401 130.534 160.881 131.274 151.999C132.014 143.117 137.196 142.376 139.416 143.857C141.637 145.337 144.598 149.038 143.117 152.739C141.637 156.44 134.235 148.298 126.833 160.881V160.881C125.725 162.729 122.177 162.674 121.45 160.647C118.215 151.63 113.87 140.237 112.029 137.935C109.068 134.234 101.666 120.171 100.186 116.47C98.7055 112.769 95.0046 103.886 86.1222 103.886C77.2399 103.886 72.7988 100.185 66.8772 92.7835C60.9557 85.3816 59.4753 90.563 52.0733 90.563C47.9661 90.563 43.8588 88.4265 40.9866 86.3764C39.3976 85.2423 36.9084 85.5041 35.3878 86.7283C33.3136 88.3983 30.0576 90.235 25.4264 91.3038C15.8039 93.5244 15.0637 96.4851 12.8431 102.407C10.6225 108.328 8.40193 117.951 9.88232 122.392C11.3627 126.833 10.6225 125.353 8.40193 127.573C6.18135 129.794 6.92155 132.755 18.0244 133.495V133.495C19.8775 133.726 20.4093 133.043 19.1596 131.656C16.0374 128.189 13.0791 125.442 12.1029 126.093C9.88232 127.573 26.1666 137.196 27.647 143.117C29.1273 149.039 28.3872 157.921 21.7254 168.284C15.0637 178.647 20.245 181.607 22.4656 182.348C24.0196 182.866 27.0236 183.746 28.9408 184.989C30.1515 185.774 31.6507 186.628 33.0768 186.409L38.4433 185.583C39.5404 185.414 40.4364 184.452 39.6003 183.722C38.964 183.166 37.8007 182.635 35.7891 182.348C30.6077 181.607 29.1273 187.529 29.8675 189.75C30.6077 191.97 32.8283 193.45 31.3479 197.151C30.9174 198.228 30.0826 199.271 29.0995 200.211C27.639 201.608 25.8632 199.979 26.7669 198.171V198.171C27.4888 196.727 30.0365 196.205 31.6505 196.172C32.4023 196.157 33.286 196.012 34.3087 195.671C35.6038 195.239 37.9216 195.778 40.5954 196.792C43.6448 197.949 42.2669 202.096 39.0147 201.851C32.8976 201.39 27.4227 201.503 26.1666 203.073C23.2058 206.774 51.3331 200.852 56.5145 203.813C61.6959 206.774 53.5537 204.553 46.892 208.995C40.2302 213.436 26.1666 213.436 23.946 205.294C21.7254 197.151 32.0881 208.995 30.6077 215.656C29.1273 222.318 27.647 230.46 38.0097 234.161C46.1898 237.083 63.2103 233.998 71.0088 232.019C71.219 231.966 71.4158 231.89 71.609 231.792L104.775 214.856C105.613 214.428 106.796 214.586 106.513 215.483C106.374 215.921 106.034 216.47 105.367 217.137C103.147 219.357 99.4457 217.136 95.7448 243.783" stroke="black" stroke-width="1.29059"/>
<path d="M142.626 261.757C134.73 253.615 118.495 235.258 116.719 226.968C114.498 216.605 115.238 203.282 121.16 197.36C127.082 191.438 129.301 189.958 130.042 194.399C130.063 194.525 130.08 194.648 130.096 194.77C130.171 195.381 133.002 198.964 133.002 199.58V199.58C133.002 202.541 134.482 208.463 125.6 220.306C120.291 227.385 112.998 236.007 107.797 241.973C106.113 243.905 107.481 246.525 109.86 245.57C112.815 244.383 115.98 242.297 118.199 238.811C123.38 230.668 131.522 212.164 138.924 213.644C146.326 215.124 149.287 222.526 139.664 238.811C135.963 245.472 124.86 235.85 132.262 226.227C132.592 225.733 132.891 225.303 133.156 224.936C133.902 223.902 135.315 223.702 135.839 224.864C136.378 226.06 136.646 227.938 135.963 230.668V230.668C135.812 231.272 137.278 231.971 137.586 231.431C139.276 228.471 140.818 225.138 141.145 222.526C141.885 216.605 144.105 197.36 148.546 191.438C152.988 185.517 171.492 172.933 172.233 165.531C172.973 158.129 170.752 154.428 170.752 148.507C170.752 142.585 175.934 135.924 175.934 129.262C175.934 125.02 173.432 118.62 171.416 114.319C170.691 112.772 171.349 110.875 172.574 109.684C174.953 107.373 177.222 103.137 175.934 96.6934C173.713 85.5905 166.311 64.8651 161.13 58.2033C155.948 51.5416 155.208 46.3602 149.287 47.1004C143.365 47.8406 151.507 50.0615 155.208 60.4242C158.909 70.7869 170.752 96.6937 184.076 87.8114C197.399 78.9291 195.179 68.5664 187.777 61.9046C183.992 58.4985 180.812 57.5312 178.624 57.5343C177.048 57.5366 176.558 59.2694 177.438 60.576C182.69 68.3759 192.491 78.4565 199.449 70.2529C199.561 70.1209 199.666 69.968 199.743 69.8131C200.821 67.6432 200.082 65.57 198.537 63.7649C196.605 61.5079 197.024 56.1163 199.555 54.5612C203.917 51.8821 207.258 47.7547 205.541 41.9194C201.84 29.3361 192.958 15.2724 180.375 13.792C167.791 12.3117 157.429 24.1548 149.287 41.9194C148.546 44.1396 155.948 41.9191 155.208 23.4142C154.468 4.90939 150.027 1.20842 145.586 2.68881C142.033 3.87312 142.625 17.4926 143.365 24.1543C143.118 16.9991 141.293 3.42886 135.963 6.38964C129.301 10.0906 135.963 41.1797 139.664 41.9194C143.365 42.6591 164.091 53.0218 159.649 18.2327C157.543 4.01398 147.865 0.840217 141.757 1.00606C140.496 1.04031 139.528 2.04329 139.326 3.28844L135.447 27.112C135.053 29.5347 131.911 30.5747 129.846 29.2482C124.781 25.9951 117.328 23.5775 110.056 27.8551C107.096 29.3355 113.017 21.1934 97.4731 20.4532C81.9291 19.713 87.1104 24.8943 72.3066 24.1543C57.5027 23.4142 43.439 38.2179 38.9979 38.2179C34.5567 38.2179 27.1548 39.6988 23.4538 47.1004C19.7528 54.5021 18.2724 72.2667 16.0519 74.4873C13.8313 76.7079 1.98819 83.3696 6.42935 93.7324C10.8705 104.095 13.092 103.355 13.092 100.394" stroke="black" stroke-width="1.29059"/>
</svg>
