<svg width="140" height="178" viewBox="0 0 140 178" fill="none" xmlns="http://www.w3.org/2000/svg">
<rect x="1" y="174" width="96" height="4" fill="#FAFAFA"/>
<mask id="path-2-inside-1_1187_361" fill="white">
<path d="M133.17 14.8625C135.331 17.3703 136.952 20.2903 138.248 23.3198C139.547 26.3567 140.762 29.8613 139.404 33.0925C138.362 35.5726 136.096 37.3219 133.612 38.2383C132.424 38.6752 131.2 38.9003 129.967 38.9544C131.602 40.1089 133.343 41.3117 134.729 42.7512C135.854 43.9203 136.802 45.6887 135.661 47.1779C134.791 48.3135 133.211 48.6437 131.82 48.6437C132.157 51.9744 130.788 55.2612 128.068 57.4314C125.311 59.6309 121.779 60.2564 118.58 59.1033C119.559 62.1402 120.481 65.3861 120.141 68.5004C119.853 71.1251 118.438 73.6914 115.953 74.7554C117.807 77.7119 118.892 81.0937 119.116 84.5763C119.231 86.3329 119.115 88.1057 118.78 89.8346C118.406 91.7607 117.667 93.5744 117.089 95.4421C116.514 97.2967 116.186 99.163 116.515 101.096C116.816 102.868 117.447 104.567 117.697 106.349C118.124 109.403 117.07 112.331 115.314 114.809C111.527 120.158 105.046 122.894 101.497 128.433C98.6782 132.832 98.0176 138.074 97.2734 143.262C98.2246 143.785 99.0026 144.658 99.4753 145.682C100.622 148.17 99.8393 151.021 98.9644 153.461C97.7754 156.776 94.656 165.084 89.7928 161.32C88.0768 159.991 87.3267 157.844 87.6834 155.738C88.1223 153.157 89.8251 151.012 91.4222 149.022C91.613 148.783 91.9448 148.96 92.0358 149.184C93.0076 151.604 93.1044 154.265 92.3749 156.722C94.9423 152.922 95.7717 148.218 96.4543 143.683C95.8069 143.437 95.0803 143.388 94.3111 143.617C92.0536 144.292 90.3604 146.674 89.0545 148.511L88.9957 148.593C86.9714 151.439 85.0895 154.946 82.8641 158.096C84.4847 160.359 86.3549 162.46 88.1428 164.573L88.3086 164.769C91.2949 168.3 94.2812 171.831 97.2675 175.361C97.5699 175.719 97.0532 176.238 96.7478 175.879C92.8197 171.233 88.8562 166.613 84.9633 161.936C84.0884 160.886 83.2297 159.813 82.4267 158.704C79.4101 162.821 75.7329 166.188 70.2605 166.41C69.9845 166.422 69.7981 166.09 69.9434 165.86C72.5387 161.722 76.1733 157.98 79.6626 154.141C79.1106 152.984 78.6556 151.778 78.3326 150.509C77.3756 146.745 77.4871 142.726 78.5558 138.996C79.6097 135.318 81.6384 131.695 84.5523 129.153C85.8044 128.062 87.4984 127.775 88.5113 129.332C89.3084 130.555 89.0353 131.876 88.4628 133.089C88.8592 132.959 89.2863 132.915 89.7209 132.968C90.1319 133.019 90.8218 133.197 91.0714 133.565C91.3708 134.008 91.0611 135.186 90.9965 135.683C90.0203 143.157 85.4374 148.805 80.5081 154.248C81.0733 155.376 81.7265 156.452 82.4399 157.489C83.0564 156.621 83.6319 155.74 84.1691 154.873C85.6796 152.434 87.0889 149.923 88.8034 147.616C90.1979 145.741 91.9536 143.41 94.3683 142.846C95.1375 142.664 95.8818 142.72 96.5644 142.949C96.6201 142.572 96.6759 142.197 96.7332 141.824C97.5244 136.564 98.4506 131.05 101.808 126.732C105.732 121.682 112.022 118.952 115.367 113.393C116.183 112.038 116.79 110.545 116.994 108.971C117.225 107.191 116.826 105.473 116.38 103.759C115.948 102.096 115.53 100.426 115.659 98.6924C115.781 97.0424 116.295 95.4567 116.826 93.8988C117.918 90.6895 118.641 87.5591 118.35 84.1452C118.065 80.7984 116.933 77.5701 115.09 74.7598C114.953 74.5522 115.096 74.295 115.308 74.2234C119.078 72.9519 119.822 68.515 119.289 65.0894C118.956 62.9557 118.376 60.8307 117.711 58.7423C117.387 58.5889 117.065 58.4164 116.751 58.2235C113.033 55.9437 110.796 51.8341 108.916 48.0533C106.166 42.5262 103.456 36.9799 100.726 31.4425C100.629 31.2438 100.698 30.9574 100.946 30.9062C101.215 30.8492 101.475 30.82 101.731 30.8112C101.519 30.703 101.395 30.4254 101.626 30.2427C102.289 29.7195 102.904 29.1495 103.472 28.546C103.186 28.5182 102.9 28.4919 102.612 28.4685C102.46 28.6161 102.297 28.755 102.119 28.8821C100.714 29.8963 98.8514 29.9431 97.2528 29.3936C94.3962 28.413 92.9224 26.0162 92.074 23.3505C91.9345 23.3286 91.8009 23.2468 91.7466 23.1065C89.3906 17.0561 80.7166 14.7032 75.6067 18.7382C75.3909 18.9092 75.0856 18.858 74.9946 18.5775C73.6969 14.5892 68.8469 13.8804 65.2548 14.4021C63.0353 14.7236 60.876 15.3608 58.6624 15.7174C56.6263 16.0448 54.5664 16.1821 52.5081 16.2815C48.7344 16.4627 44.9007 16.5007 41.2242 17.4668C37.7835 18.3699 34.9034 20.2625 32.0664 22.3319C29.4153 24.2639 26.7519 26.2778 23.6164 27.368C21.99 27.9336 20.2243 28.2011 18.729 29.0925C17.0726 30.0805 16.2541 31.8123 15.7045 33.5836C14.5293 37.3731 13.6632 41.281 12.6593 45.1187C12.2348 46.7424 11.9937 48.6905 10.9888 50.0862C10.125 51.2846 8.70189 51.9057 7.67404 52.9404C3.87342 56.7694 4.15291 63.8515 8.2502 67.3473C8.39905 66.9176 8.55157 66.4895 8.71231 66.0627C8.72009 66.0423 8.73036 66.0247 8.74049 66.0057C9.54815 63.0024 12.8144 61.3715 15.6546 60.5311C19.0765 59.5184 23.5656 59.0507 25.2993 55.4438C25.3961 55.2422 25.7314 55.1969 25.8758 55.3693C27.9678 57.864 30.9992 59.5081 34.2562 59.8399C37.4083 60.1614 40.6306 58.7716 43.591 60.3821C45.6148 61.484 47.0265 63.3985 48.5882 65.0295C49.4028 65.88 50.2739 66.697 51.303 67.2859C52.6587 68.062 54.2109 68.3089 55.7437 68.4755C58.5214 68.7781 61.1461 69.1084 63.464 70.8007C65.6879 72.4244 66.965 74.6282 67.7841 77.2062C68.3023 78.8357 68.9555 80.3235 69.8524 81.7835C70.6906 83.1485 71.5699 84.4871 72.3949 85.8609C74.0595 88.6362 75.6023 91.4845 77.0203 94.3928C79.5921 99.6715 81.7441 105.146 83.4631 110.755C84.2102 107.961 86.0936 105.514 88.5406 103.97C88.4482 103.452 88.3718 102.933 88.3263 102.41C88.1722 100.661 88.41 98.84 89.5124 97.4165C90.3653 96.3146 91.707 95.4494 93.1499 95.5225C94.5254 95.5927 95.6454 96.4651 96.3309 97.6138C96.9915 98.7187 97.5963 100.464 97.3291 101.763C97.0106 103.302 95.2006 102.96 93.9999 102.979C94.1628 103.085 94.3199 103.205 94.4681 103.341C95.139 103.959 95.9625 105.561 95.0715 106.362C94.5768 106.805 93.445 106.871 92.8064 106.9C91.9976 106.938 91.1682 106.821 90.4049 106.555C89.9998 106.415 89.3597 106.219 89.0588 105.905C88.8533 105.69 88.8401 105.457 88.777 105.164C88.7711 105.136 88.7652 105.11 88.7594 105.083C88.5935 105.275 88.4364 105.471 88.2867 105.663C87.3193 106.91 86.1655 108.423 87.5821 109.818C88.7168 110.936 90.4768 111.004 91.9139 110.513C94.9511 109.475 96.3354 106.315 97.0502 103.441C97.4422 101.861 97.7064 100.177 97.3879 98.5609C97.1119 97.1535 96.3339 95.9756 95.5016 94.8356C94.1746 93.022 92.5525 91.0958 93.0736 88.699C93.0986 88.5821 93.2116 88.4681 93.329 88.4433C94.4461 88.2094 95.5808 88.0808 96.7229 88.0954C97.6403 88.1071 98.9189 88.0838 99.7409 88.569C100.487 89.0089 100.559 89.8536 100.592 90.6369C100.694 93.06 100.776 95.4903 100.68 97.9164C100.512 102.19 99.7248 106.518 97.5141 110.244C95.4282 113.76 92.2031 116.198 88.2632 117.326C87.221 117.624 86.1538 117.831 85.0778 117.975C84.1236 118.102 82.9933 118.052 82.1419 118.565C81.1481 119.166 80.9808 120.626 80.7122 121.644C80.3922 122.853 80.0721 124.062 79.7521 125.269C79.1239 127.648 78.5235 130.037 77.857 132.406C77.3007 134.382 76.6137 136.376 75.3806 138.046C74.1314 139.74 72.3978 140.968 70.6568 142.116C68.6957 143.411 66.7008 144.655 64.6779 145.852C60.5854 148.272 56.3738 150.492 52.0619 152.5C49.939 153.488 47.7919 154.425 45.6239 155.312C45.2252 155.474 44.8052 155.639 44.3819 155.814C54.1041 153.394 62.8827 148.3 71.3453 143.088C71.5141 142.984 71.749 143.052 71.8473 143.22C72.7971 144.84 70.3691 146.147 69.5016 147.161C68.1775 148.71 67.4685 150.682 66.9899 152.631C66.4659 154.772 66.1826 156.97 65.8361 159.144C65.4325 161.684 65.0288 164.224 64.6266 166.762C64.5972 166.945 64.3711 167.057 64.1994 167.022C64.2038 167.478 63.486 167.471 63.4669 167.008C63.464 166.936 63.4552 166.869 63.4478 166.802C62.5318 166.533 61.6129 166.28 60.6881 166.047C55.9483 164.858 51.0883 164.155 46.204 163.959C44.4052 163.887 42.1437 164.174 40.5998 163.044C40.2137 162.761 39.9257 162.413 39.721 162.027C37.2687 161.988 34.8158 161.977 32.3633 161.969C28.7785 161.957 25.1727 161.971 21.6151 162.464C15.1496 163.358 9 165.765 1 175.72H0C6 167.756 12.2213 164.237 15.2039 163.214C18.575 162.056 22.1182 161.552 25.6678 161.358C29.4115 161.153 33.1723 161.232 36.9197 161.263C37.7606 161.27 38.6016 161.28 39.4426 161.292C39.2462 160.491 39.3362 159.607 39.6573 158.81C39.8825 158.252 40.2066 157.77 40.5971 157.347C35.9866 158.121 31.0551 158.347 26.4885 157.299C24.641 156.874 22.7808 156.148 21.3784 154.84C19.9176 153.478 19.2745 151.61 19.2096 149.65C19.1349 147.398 19.6797 145.178 19.6691 142.927C19.6665 142.382 19.6342 141.818 19.5414 141.267C17.9336 140.481 16.5622 139.275 15.7252 137.624C15.6273 137.431 15.6972 137.133 15.9445 137.087C18.2025 136.668 19.7444 138.802 20.1804 140.76C21.7906 141.473 23.6312 141.749 25.3823 141.63C29.3365 141.362 32.8611 139.17 36.0904 136.976C35.708 136.871 35.3245 136.77 34.9394 136.677C28.5199 136.307 22.0802 136.425 15.6763 137.03C15.2515 137.07 15.1951 136.421 15.5787 136.313C15.6256 136.299 15.6728 136.287 15.7197 136.274L15.7293 136.272C16.7915 134.314 17.8537 132.354 18.9159 130.395C19.0546 130.14 19.4022 130.179 19.5498 130.395C19.8476 130.834 20.3072 131.006 20.8242 131.047C20.7317 129.44 19.7259 127.842 19.8014 126.191C19.8193 125.799 19.8869 125.405 19.9964 125.023C19.9534 125.004 19.9113 124.976 19.8721 124.934C18.4205 123.395 16.1653 123.163 14.3411 122.255C12.339 121.259 11.4703 119.392 11.9485 117.206C12.4472 114.923 13.8357 112.801 14.9149 110.757C16.0826 108.544 17.2407 106.296 17.9295 103.882C18.2853 102.635 18.4879 101.36 18.5014 100.085C18.1401 101.484 16.8563 102.083 15.4209 102.184C13.6716 102.308 11.801 102.213 10.2535 101.333C8.09666 106.27 7.69944 111.663 8.68428 116.939C9.68966 122.327 11.8566 127.413 14.0186 132.423C14.2033 132.849 13.5707 133.222 13.3847 132.791C11.1279 127.562 8.84751 122.246 7.88175 116.604C6.95343 111.18 7.46839 105.712 9.74706 100.677C9.16502 99.749 8.56038 98.8298 8.00521 97.8857C7.58171 97.1666 7.18625 96.3204 7.44549 95.4728C7.86752 94.0918 9.69568 93.5466 10.9632 93.3654C13.4185 93.0176 15.9588 93.8857 17.6897 95.6131C17.4117 94.8912 17.0738 94.1955 16.6885 93.5233C16.5726 93.5715 16.4329 93.5598 16.3102 93.4443L14.4466 91.7038C12.8193 90.4396 10.921 89.5423 8.88157 89.1097C7.20636 88.7531 3.49998 89.1301 4.04429 86.3578C4.31424 84.9826 5.37688 84.1846 6.6004 84.0297C6.17573 83.3647 5.86967 82.6311 5.7628 81.7849C5.59883 80.4857 5.75824 79.1441 5.89726 77.8478C6.037 76.5456 6.22901 75.2464 6.47489 73.9603C6.85538 71.9669 7.36886 70.0028 8.00227 68.0766C3.36185 64.2987 2.9429 56.4552 7.30897 52.2725C8.69557 50.944 10.389 50.2718 11.0399 48.3178C11.7141 46.2952 12.1495 44.1688 12.6889 42.1067L14.3803 35.6398C14.8331 33.908 15.2497 32.0929 16.2231 30.5627C18.2201 27.4206 22.1574 27.4031 25.2308 25.9081C28.4754 24.3312 31.2053 21.9271 34.1909 19.9424C37.3293 17.8555 40.6916 16.6104 44.4336 16.1076C48.4557 15.5654 52.529 15.6896 56.5617 15.2629C60.6543 14.8303 64.7895 13.0663 68.9423 13.5618C71.6756 13.8877 74.425 15.3082 75.5201 17.9008C80.5404 14.3656 88.1619 16.0331 91.4868 21.0502C91.384 20.546 91.2945 20.0418 91.2152 19.5479C90.722 16.4657 90.2229 13.2651 90.3521 10.1142C90.3066 9.69479 90.2611 9.27536 90.217 8.85593C90.1025 7.78908 89.9264 6.7003 90.0643 5.62614C90.2258 4.37953 90.9774 3.39159 92.0387 3.10515C92.4174 2.38757 92.871 1.71823 93.4127 1.14096C94.9716 -0.519241 96.7493 -0.114426 98.6385 0.760986C98.8103 0.84137 98.9806 0.926117 99.1494 1.01234C100.766 0.90712 102.445 1.91846 103.505 3.02477C104.443 4.00394 105.087 5.17747 105.501 6.43578C106.05 7.18404 106.543 7.97029 106.972 8.78871C108.107 10.959 108.723 13.3031 108.863 15.6604C110.834 12.9114 113.092 10.3013 116.406 9.17598C122.572 7.08173 129.149 10.1961 133.17 14.8625Z"/>
</mask>
<path d="M133.17 14.8625C135.331 17.3703 136.952 20.2903 138.248 23.3198C139.547 26.3567 140.762 29.8613 139.404 33.0925C138.362 35.5726 136.096 37.3219 133.612 38.2383C132.424 38.6752 131.2 38.9003 129.967 38.9544C131.602 40.1089 133.343 41.3117 134.729 42.7512C135.854 43.9203 136.802 45.6887 135.661 47.1779C134.791 48.3135 133.211 48.6437 131.82 48.6437C132.157 51.9744 130.788 55.2612 128.068 57.4314C125.311 59.6309 121.779 60.2564 118.58 59.1033C119.559 62.1402 120.481 65.3861 120.141 68.5004C119.853 71.1251 118.438 73.6914 115.953 74.7554C117.807 77.7119 118.892 81.0937 119.116 84.5763C119.231 86.3329 119.115 88.1057 118.78 89.8346C118.406 91.7607 117.667 93.5744 117.089 95.4421C116.514 97.2967 116.186 99.163 116.515 101.096C116.816 102.868 117.447 104.567 117.697 106.349C118.124 109.403 117.07 112.331 115.314 114.809C111.527 120.158 105.046 122.894 101.497 128.433C98.6782 132.832 98.0176 138.074 97.2734 143.262C98.2246 143.785 99.0026 144.658 99.4753 145.682C100.622 148.17 99.8393 151.021 98.9644 153.461C97.7754 156.776 94.656 165.084 89.7928 161.32C88.0768 159.991 87.3267 157.844 87.6834 155.738C88.1223 153.157 89.8251 151.012 91.4222 149.022C91.613 148.783 91.9448 148.96 92.0358 149.184C93.0076 151.604 93.1044 154.265 92.3749 156.722C94.9423 152.922 95.7717 148.218 96.4543 143.683C95.8069 143.437 95.0803 143.388 94.3111 143.617C92.0536 144.292 90.3604 146.674 89.0545 148.511L88.9957 148.593C86.9714 151.439 85.0895 154.946 82.8641 158.096C84.4847 160.359 86.3549 162.46 88.1428 164.573L88.3086 164.769C91.2949 168.3 94.2812 171.831 97.2675 175.361C97.5699 175.719 97.0532 176.238 96.7478 175.879C92.8197 171.233 88.8562 166.613 84.9633 161.936C84.0884 160.886 83.2297 159.813 82.4267 158.704C79.4101 162.821 75.7329 166.188 70.2605 166.41C69.9845 166.422 69.7981 166.09 69.9434 165.86C72.5387 161.722 76.1733 157.98 79.6626 154.141C79.1106 152.984 78.6556 151.778 78.3326 150.509C77.3756 146.745 77.4871 142.726 78.5558 138.996C79.6097 135.318 81.6384 131.695 84.5523 129.153C85.8044 128.062 87.4984 127.775 88.5113 129.332C89.3084 130.555 89.0353 131.876 88.4628 133.089C88.8592 132.959 89.2863 132.915 89.7209 132.968C90.1319 133.019 90.8218 133.197 91.0714 133.565C91.3708 134.008 91.0611 135.186 90.9965 135.683C90.0203 143.157 85.4374 148.805 80.5081 154.248C81.0733 155.376 81.7265 156.452 82.4399 157.489C83.0564 156.621 83.6319 155.74 84.1691 154.873C85.6796 152.434 87.0889 149.923 88.8034 147.616C90.1979 145.741 91.9536 143.41 94.3683 142.846C95.1375 142.664 95.8818 142.72 96.5644 142.949C96.6201 142.572 96.6759 142.197 96.7332 141.824C97.5244 136.564 98.4506 131.05 101.808 126.732C105.732 121.682 112.022 118.952 115.367 113.393C116.183 112.038 116.79 110.545 116.994 108.971C117.225 107.191 116.826 105.473 116.38 103.759C115.948 102.096 115.53 100.426 115.659 98.6924C115.781 97.0424 116.295 95.4567 116.826 93.8988C117.918 90.6895 118.641 87.5591 118.35 84.1452C118.065 80.7984 116.933 77.5701 115.09 74.7598C114.953 74.5522 115.096 74.295 115.308 74.2234C119.078 72.9519 119.822 68.515 119.289 65.0894C118.956 62.9557 118.376 60.8307 117.711 58.7423C117.387 58.5889 117.065 58.4164 116.751 58.2235C113.033 55.9437 110.796 51.8341 108.916 48.0533C106.166 42.5262 103.456 36.9799 100.726 31.4425C100.629 31.2438 100.698 30.9574 100.946 30.9062C101.215 30.8492 101.475 30.82 101.731 30.8112C101.519 30.703 101.395 30.4254 101.626 30.2427C102.289 29.7195 102.904 29.1495 103.472 28.546C103.186 28.5182 102.9 28.4919 102.612 28.4685C102.46 28.6161 102.297 28.755 102.119 28.8821C100.714 29.8963 98.8514 29.9431 97.2528 29.3936C94.3962 28.413 92.9224 26.0162 92.074 23.3505C91.9345 23.3286 91.8009 23.2468 91.7466 23.1065C89.3906 17.0561 80.7166 14.7032 75.6067 18.7382C75.3909 18.9092 75.0856 18.858 74.9946 18.5775C73.6969 14.5892 68.8469 13.8804 65.2548 14.4021C63.0353 14.7236 60.876 15.3608 58.6624 15.7174C56.6263 16.0448 54.5664 16.1821 52.5081 16.2815C48.7344 16.4627 44.9007 16.5007 41.2242 17.4668C37.7835 18.3699 34.9034 20.2625 32.0664 22.3319C29.4153 24.2639 26.7519 26.2778 23.6164 27.368C21.99 27.9336 20.2243 28.2011 18.729 29.0925C17.0726 30.0805 16.2541 31.8123 15.7045 33.5836C14.5293 37.3731 13.6632 41.281 12.6593 45.1187C12.2348 46.7424 11.9937 48.6905 10.9888 50.0862C10.125 51.2846 8.70189 51.9057 7.67404 52.9404C3.87342 56.7694 4.15291 63.8515 8.2502 67.3473C8.39905 66.9176 8.55157 66.4895 8.71231 66.0627C8.72009 66.0423 8.73036 66.0247 8.74049 66.0057C9.54815 63.0024 12.8144 61.3715 15.6546 60.5311C19.0765 59.5184 23.5656 59.0507 25.2993 55.4438C25.3961 55.2422 25.7314 55.1969 25.8758 55.3693C27.9678 57.864 30.9992 59.5081 34.2562 59.8399C37.4083 60.1614 40.6306 58.7716 43.591 60.3821C45.6148 61.484 47.0265 63.3985 48.5882 65.0295C49.4028 65.88 50.2739 66.697 51.303 67.2859C52.6587 68.062 54.2109 68.3089 55.7437 68.4755C58.5214 68.7781 61.1461 69.1084 63.464 70.8007C65.6879 72.4244 66.965 74.6282 67.7841 77.2062C68.3023 78.8357 68.9555 80.3235 69.8524 81.7835C70.6906 83.1485 71.5699 84.4871 72.3949 85.8609C74.0595 88.6362 75.6023 91.4845 77.0203 94.3928C79.5921 99.6715 81.7441 105.146 83.4631 110.755C84.2102 107.961 86.0936 105.514 88.5406 103.97C88.4482 103.452 88.3718 102.933 88.3263 102.41C88.1722 100.661 88.41 98.84 89.5124 97.4165C90.3653 96.3146 91.707 95.4494 93.1499 95.5225C94.5254 95.5927 95.6454 96.4651 96.3309 97.6138C96.9915 98.7187 97.5963 100.464 97.3291 101.763C97.0106 103.302 95.2006 102.96 93.9999 102.979C94.1628 103.085 94.3199 103.205 94.4681 103.341C95.139 103.959 95.9625 105.561 95.0715 106.362C94.5768 106.805 93.445 106.871 92.8064 106.9C91.9976 106.938 91.1682 106.821 90.4049 106.555C89.9998 106.415 89.3597 106.219 89.0588 105.905C88.8533 105.69 88.8401 105.457 88.777 105.164C88.7711 105.136 88.7652 105.11 88.7594 105.083C88.5935 105.275 88.4364 105.471 88.2867 105.663C87.3193 106.91 86.1655 108.423 87.5821 109.818C88.7168 110.936 90.4768 111.004 91.9139 110.513C94.9511 109.475 96.3354 106.315 97.0502 103.441C97.4422 101.861 97.7064 100.177 97.3879 98.5609C97.1119 97.1535 96.3339 95.9756 95.5016 94.8356C94.1746 93.022 92.5525 91.0958 93.0736 88.699C93.0986 88.5821 93.2116 88.4681 93.329 88.4433C94.4461 88.2094 95.5808 88.0808 96.7229 88.0954C97.6403 88.1071 98.9189 88.0838 99.7409 88.569C100.487 89.0089 100.559 89.8536 100.592 90.6369C100.694 93.06 100.776 95.4903 100.68 97.9164C100.512 102.19 99.7248 106.518 97.5141 110.244C95.4282 113.76 92.2031 116.198 88.2632 117.326C87.221 117.624 86.1538 117.831 85.0778 117.975C84.1236 118.102 82.9933 118.052 82.1419 118.565C81.1481 119.166 80.9808 120.626 80.7122 121.644C80.3922 122.853 80.0721 124.062 79.7521 125.269C79.1239 127.648 78.5235 130.037 77.857 132.406C77.3007 134.382 76.6137 136.376 75.3806 138.046C74.1314 139.74 72.3978 140.968 70.6568 142.116C68.6957 143.411 66.7008 144.655 64.6779 145.852C60.5854 148.272 56.3738 150.492 52.0619 152.5C49.939 153.488 47.7919 154.425 45.6239 155.312C45.2252 155.474 44.8052 155.639 44.3819 155.814C54.1041 153.394 62.8827 148.3 71.3453 143.088C71.5141 142.984 71.749 143.052 71.8473 143.22C72.7971 144.84 70.3691 146.147 69.5016 147.161C68.1775 148.71 67.4685 150.682 66.9899 152.631C66.4659 154.772 66.1826 156.97 65.8361 159.144C65.4325 161.684 65.0288 164.224 64.6266 166.762C64.5972 166.945 64.3711 167.057 64.1994 167.022C64.2038 167.478 63.486 167.471 63.4669 167.008C63.464 166.936 63.4552 166.869 63.4478 166.802C62.5318 166.533 61.6129 166.28 60.6881 166.047C55.9483 164.858 51.0883 164.155 46.204 163.959C44.4052 163.887 42.1437 164.174 40.5998 163.044C40.2137 162.761 39.9257 162.413 39.721 162.027C37.2687 161.988 34.8158 161.977 32.3633 161.969C28.7785 161.957 25.1727 161.971 21.6151 162.464C15.1496 163.358 9 165.765 1 175.72H0C6 167.756 12.2213 164.237 15.2039 163.214C18.575 162.056 22.1182 161.552 25.6678 161.358C29.4115 161.153 33.1723 161.232 36.9197 161.263C37.7606 161.27 38.6016 161.28 39.4426 161.292C39.2462 160.491 39.3362 159.607 39.6573 158.81C39.8825 158.252 40.2066 157.77 40.5971 157.347C35.9866 158.121 31.0551 158.347 26.4885 157.299C24.641 156.874 22.7808 156.148 21.3784 154.84C19.9176 153.478 19.2745 151.61 19.2096 149.65C19.1349 147.398 19.6797 145.178 19.6691 142.927C19.6665 142.382 19.6342 141.818 19.5414 141.267C17.9336 140.481 16.5622 139.275 15.7252 137.624C15.6273 137.431 15.6972 137.133 15.9445 137.087C18.2025 136.668 19.7444 138.802 20.1804 140.76C21.7906 141.473 23.6312 141.749 25.3823 141.63C29.3365 141.362 32.8611 139.17 36.0904 136.976C35.708 136.871 35.3245 136.77 34.9394 136.677C28.5199 136.307 22.0802 136.425 15.6763 137.03C15.2515 137.07 15.1951 136.421 15.5787 136.313C15.6256 136.299 15.6728 136.287 15.7197 136.274L15.7293 136.272C16.7915 134.314 17.8537 132.354 18.9159 130.395C19.0546 130.14 19.4022 130.179 19.5498 130.395C19.8476 130.834 20.3072 131.006 20.8242 131.047C20.7317 129.44 19.7259 127.842 19.8014 126.191C19.8193 125.799 19.8869 125.405 19.9964 125.023C19.9534 125.004 19.9113 124.976 19.8721 124.934C18.4205 123.395 16.1653 123.163 14.3411 122.255C12.339 121.259 11.4703 119.392 11.9485 117.206C12.4472 114.923 13.8357 112.801 14.9149 110.757C16.0826 108.544 17.2407 106.296 17.9295 103.882C18.2853 102.635 18.4879 101.36 18.5014 100.085C18.1401 101.484 16.8563 102.083 15.4209 102.184C13.6716 102.308 11.801 102.213 10.2535 101.333C8.09666 106.27 7.69944 111.663 8.68428 116.939C9.68966 122.327 11.8566 127.413 14.0186 132.423C14.2033 132.849 13.5707 133.222 13.3847 132.791C11.1279 127.562 8.84751 122.246 7.88175 116.604C6.95343 111.18 7.46839 105.712 9.74706 100.677C9.16502 99.749 8.56038 98.8298 8.00521 97.8857C7.58171 97.1666 7.18625 96.3204 7.44549 95.4728C7.86752 94.0918 9.69568 93.5466 10.9632 93.3654C13.4185 93.0176 15.9588 93.8857 17.6897 95.6131C17.4117 94.8912 17.0738 94.1955 16.6885 93.5233C16.5726 93.5715 16.4329 93.5598 16.3102 93.4443L14.4466 91.7038C12.8193 90.4396 10.921 89.5423 8.88157 89.1097C7.20636 88.7531 3.49998 89.1301 4.04429 86.3578C4.31424 84.9826 5.37688 84.1846 6.6004 84.0297C6.17573 83.3647 5.86967 82.6311 5.7628 81.7849C5.59883 80.4857 5.75824 79.1441 5.89726 77.8478C6.037 76.5456 6.22901 75.2464 6.47489 73.9603C6.85538 71.9669 7.36886 70.0028 8.00227 68.0766C3.36185 64.2987 2.9429 56.4552 7.30897 52.2725C8.69557 50.944 10.389 50.2718 11.0399 48.3178C11.7141 46.2952 12.1495 44.1688 12.6889 42.1067L14.3803 35.6398C14.8331 33.908 15.2497 32.0929 16.2231 30.5627C18.2201 27.4206 22.1574 27.4031 25.2308 25.9081C28.4754 24.3312 31.2053 21.9271 34.1909 19.9424C37.3293 17.8555 40.6916 16.6104 44.4336 16.1076C48.4557 15.5654 52.529 15.6896 56.5617 15.2629C60.6543 14.8303 64.7895 13.0663 68.9423 13.5618C71.6756 13.8877 74.425 15.3082 75.5201 17.9008C80.5404 14.3656 88.1619 16.0331 91.4868 21.0502C91.384 20.546 91.2945 20.0418 91.2152 19.5479C90.722 16.4657 90.2229 13.2651 90.3521 10.1142C90.3066 9.69479 90.2611 9.27536 90.217 8.85593C90.1025 7.78908 89.9264 6.7003 90.0643 5.62614C90.2258 4.37953 90.9774 3.39159 92.0387 3.10515C92.4174 2.38757 92.871 1.71823 93.4127 1.14096C94.9716 -0.519241 96.7493 -0.114426 98.6385 0.760986C98.8103 0.84137 98.9806 0.926117 99.1494 1.01234C100.766 0.90712 102.445 1.91846 103.505 3.02477C104.443 4.00394 105.087 5.17747 105.501 6.43578C106.05 7.18404 106.543 7.97029 106.972 8.78871C108.107 10.959 108.723 13.3031 108.863 15.6604C110.834 12.9114 113.092 10.3013 116.406 9.17598C122.572 7.08173 129.149 10.1961 133.17 14.8625Z" stroke="black" mask="url(#path-2-inside-1_1187_361)"/>
<path d="M29.326 91.8369L29.326 91.8369C30.2585 89.7171 32.3912 88.6457 34.5236 87.9205L29.326 91.8369ZM29.326 91.8369C29.2672 91.9704 29.1682 92.0512 29.0516 92.0778C28.9388 92.1036 28.822 92.0761 28.7259 92.02C28.5354 91.9087 28.39 91.6593 28.5093 91.3881L28.5093 91.3881C29.3567 89.4609 31.1229 88.29 32.9875 87.5086C34.9346 86.6925 37.0324 86.1648 39.0722 85.6767L39.0723 85.6767M29.326 91.8369L39.0723 85.6767M55.4955 89.6383C51.5968 87.3329 47.4699 85.4988 42.8081 85.9539C40.0172 86.2276 37.1813 87.0183 34.5237 87.9205L55.4955 89.6383ZM55.4955 89.6383C51.8639 88.6174 47.997 88.5029 44.3023 89.3873C43.7173 89.5268 43.1397 89.6944 42.5648 89.8613C42.5012 89.8798 42.4375 89.8982 42.3739 89.9167C41.735 90.1017 41.0981 90.282 40.451 90.42L40.4509 90.42C39.9093 90.5359 39.3605 90.6063 38.8071 90.6699C38.7029 90.6818 38.5985 90.6935 38.4939 90.7053C38.0444 90.7557 37.5922 90.8065 37.1428 90.878L37.1428 90.878C35.1272 91.1998 33.329 92.2162 32.8344 94.3565L32.9318 94.379M55.4955 89.6383L32.9318 94.379M35.6381 101.086C35.6965 101.155 35.7754 101.21 35.8697 101.231L35.8697 101.231C36.4572 101.365 37.0447 101.498 37.6322 101.632C38.8211 101.903 40.0102 102.173 41.1997 102.441L41.2216 102.344L41.1996 102.441C42.7468 102.791 44.3739 103.137 45.9793 102.755C45.9793 102.755 45.9793 102.755 45.9793 102.755L45.9562 102.658L35.6381 101.086ZM35.6381 101.086C35.5767 101.113 35.5092 101.129 35.4398 101.126C35.3329 101.122 35.2298 101.075 35.1483 100.977C35.1483 100.977 35.1483 100.977 35.1483 100.977L35.2253 100.913C33.7079 99.0848 32.3625 96.843 32.9318 94.379M35.6381 101.086L32.9318 94.379M54.4178 98.8704L54.4178 98.8703C51.9867 95.1975 47.6262 93.5074 43.3782 93.2065C42.3228 93.1318 41.1437 93.1029 40.0318 93.3034C38.9193 93.504 37.8669 93.9355 37.0735 94.7872L37.0735 94.7872C35.9201 96.0256 35.6217 97.7201 35.5467 99.3499C35.4837 99.4852 35.4226 99.6217 35.3628 99.7579C34.2399 98.2853 33.339 96.5532 33.7134 94.6984L33.6154 94.6786L33.7134 94.6984C33.9347 93.6016 34.539 92.9086 35.3368 92.4578C36.1392 92.0044 37.1392 91.7954 38.1469 91.6782L38.1469 91.6782C38.2536 91.6657 38.3604 91.6535 38.4673 91.6412C39.2993 91.5459 40.1336 91.4502 40.9589 91.2598C40.9589 91.2598 40.9589 91.2598 40.9589 91.2598L40.9364 91.1623C41.5609 91.0183 42.176 90.8398 42.7912 90.6613L54.4178 98.8704ZM54.4178 98.8704C54.4739 98.9552 54.4999 99.0432 54.497 99.1292C54.4941 99.2149 54.4626 99.2917 54.4148 99.3549C54.3441 99.4483 54.236 99.5143 54.1184 99.5424L54.4178 98.8704ZM39.0723 85.6767C41.4605 85.107 43.9294 84.749 46.3946 85.0624C50.989 85.6459 55.009 88.1717 58.8055 90.5928C58.9496 90.6842 59.0162 90.8206 59.0209 90.9589C59.0253 91.0854 58.978 91.2104 58.899 91.3038L39.0723 85.6767ZM46.5228 101.616L46.5228 101.616C47.0842 101.408 47.6296 101.135 48.1739 100.845C48.35 100.752 48.5264 100.656 48.7031 100.56C49.0705 100.36 49.4394 100.159 49.8108 99.9746C50.7551 99.505 51.7341 99.1277 52.8077 99.1009C49.7887 97.8572 46.5978 96.8848 43.3763 96.4085C41.8174 96.1795 40.095 96.1247 38.7021 96.8954C37.6442 97.4816 36.9885 98.4861 36.4676 99.5709C36.4587 99.8547 36.4562 100.135 36.4559 100.411C36.9217 100.517 37.3875 100.623 37.8532 100.729C39.0918 101.011 40.3302 101.293 41.5694 101.571L41.5695 101.571C43.2531 101.951 44.8898 102.221 46.5228 101.616ZM37.8824 95.2941L37.8824 95.2942C37.2953 95.8603 36.9484 96.576 36.744 97.3572C37.0603 96.971 37.424 96.6206 37.8533 96.3264C39.2337 95.3789 40.9884 95.2402 42.5881 95.3828L42.5881 95.3828C45.9649 95.6851 49.3529 96.712 52.52 97.9823C50.2874 95.6519 47.0117 94.4749 43.7939 94.1716C42.8222 94.0803 41.712 94.0036 40.658 94.1299C39.6041 94.2562 38.6171 94.5844 37.8824 95.2941Z" fill="black" stroke="black" stroke-width="0.2"/>
</svg>
