<svg width="20" height="20" viewBox="0 0 20 20" fill="none" xmlns="http://www.w3.org/2000/svg">
<path d="M4.58 3.8261C5.37222 2.63778 10.1524 2.98578 12.5112 3.31637C12.558 3.32293 12.6047 3.3259 12.652 3.32677C14.592 3.36247 15.0861 4.83199 15.5801 5.32593C16.0801 5.82593 17.0801 11.8259 15.0801 14.8259C13.0801 17.8259 5.58 16.3259 4.08 15.3259C2.58 14.3259 3.08 9.82593 3.08 7.82593C3.08 5.82593 3.58 5.3261 4.58 3.8261Z" stroke="white"/>
<path d="M13.0809 6.32593C12.7557 6.00067 13.0696 5.65336 13.3775 5.44532C13.5061 5.35841 13.6685 5.31258 13.8095 5.37752C13.9485 5.44154 14.0801 5.57445 14.0801 5.82593C14.0801 6.32593 13.5809 6.82593 13.0809 6.32593Z" stroke="white"/>
</svg>
