<svg width="28" height="27" viewBox="0 0 28 27" fill="none" xmlns="http://www.w3.org/2000/svg">
<path fill-rule="evenodd" clip-rule="evenodd" d="M11.2871 0.953125H15.094L27.1015 26.0452H16.9597C16.913 26.0479 16.8668 26.0478 16.8211 26.0447L16.8349 25.5056H16.947C17.1938 25.488 17.5035 25.3515 17.8505 25.1137C18.2377 24.8484 18.639 24.4794 18.9994 24.094C19.3593 23.709 19.6716 23.3148 19.8814 23.0046C19.9871 22.8482 20.0618 22.7205 20.104 22.6303C20.1078 22.6222 20.1111 22.6147 20.1141 22.6079C19.5801 21.7637 18.8719 20.8432 18.2453 20.0322L18.2006 19.9745C17.8953 19.5793 17.6106 19.2109 17.3816 18.8964C17.1977 18.6438 17.0387 18.4116 16.9339 18.2208H9.43121C9.08982 18.7264 8.66572 19.2814 8.24049 19.8379C8.04066 20.0995 7.84058 20.3613 7.64872 20.6185C7.05026 21.4208 6.53716 22.171 6.29324 22.7761C6.29347 22.7764 6.2937 22.7768 6.29393 22.7772C6.343 22.8553 6.41586 22.9677 6.50979 23.1031C6.69795 23.3743 6.96911 23.7352 7.3014 24.0952C7.97565 24.8257 8.85857 25.5056 9.78528 25.5056V26.0452H0L11.2871 0.953125ZM8.15662 25.5056C7.70901 25.2162 7.3098 24.8462 6.97886 24.4877C6.62629 24.1057 6.34015 23.7246 6.1422 23.4393C6.04308 23.2965 5.9657 23.1771 5.91279 23.0929C5.88633 23.0508 5.86596 23.0174 5.85202 22.9943C5.84506 22.9827 5.8397 22.9737 5.83599 22.9674L5.83166 22.96L5.83006 22.9573C5.83001 22.9572 5.82984 22.9569 6.02551 22.8075L5.83006 22.9573L5.76148 22.8389L5.80733 22.7073C6.05914 21.9845 6.65794 21.1172 7.29177 20.2675C7.49295 19.9978 7.69849 19.7289 7.90114 19.4637C8.35063 18.8754 8.78594 18.3058 9.1281 17.7879L9.19862 17.6812H17.2151L17.28 17.8303C17.3442 17.9776 17.5023 18.2209 17.7421 18.5502C17.9666 18.8585 18.2472 19.2215 18.5547 19.6196L18.5969 19.6741C19.2413 20.5082 19.9941 21.4859 20.5509 22.3809C20.6268 22.5029 20.6008 22.6386 20.5898 22.6872C20.5746 22.7544 20.5474 22.8228 20.518 22.8856C20.458 23.0139 20.3654 23.1686 20.2526 23.3355C20.0253 23.6717 19.6955 24.0869 19.3197 24.4888C18.9742 24.8584 18.5841 25.2229 18.1929 25.5056H26.307L14.816 1.49274H11.5733L0.771688 25.5056H8.15662ZM20.1349 22.5518C20.1348 22.5523 20.1346 22.5529 20.1344 22.5536C20.1355 22.5457 20.1366 22.5443 20.1349 22.5518Z" fill="white"/>
<path fill-rule="evenodd" clip-rule="evenodd" d="M18.8594 10.8679L14.2687 12.2763L13.449 14.5236L12.996 14.5282L12.1002 12.227L7.89316 10.8749L12.1463 9.43489L12.995 7.05245L13.4488 7.05172L14.3175 9.47822L18.8594 10.8679ZM17.0626 10.8686L13.9292 9.90988L13.2234 8.24633L12.5374 9.85709L9.57049 10.8616L12.485 11.7983L13.2135 13.3628L13.8795 11.8452L17.0626 10.8686Z" fill="white"/>
</svg>
