<svg width="31" height="31" viewBox="0 0 31 31" fill="none" xmlns="http://www.w3.org/2000/svg">
<path d="M4.87305 10.271C4.87305 9.52606 5.73663 9.11375 6.31595 9.58213L14.737 16.3906C15.0566 16.649 15.512 16.6537 15.8368 16.4018L24.7061 9.52359C25.2882 9.07216 26.1349 9.48702 26.1349 10.2237V21.7042C26.1349 22.1934 25.7382 22.5901 25.249 22.5901H5.75896C5.26968 22.5901 4.87305 22.1934 4.87305 21.7042V10.271Z" fill="white"/>
<path d="M4.87305 10.271C4.87305 9.52606 5.73663 9.11375 6.31595 9.58213L14.737 16.3906C15.0566 16.649 15.512 16.6537 15.8368 16.4018L24.7061 9.52359C25.2882 9.07216 26.1349 9.48702 26.1349 10.2237V21.7042C26.1349 22.1934 25.7382 22.5901 25.249 22.5901H5.75896C5.26968 22.5901 4.87305 22.1934 4.87305 21.7042V10.271Z" fill="url(#paint0_linear_1196_6451)"/>
<path d="M14.5536 14.094L7.08789 7.63721H24.1417L16.0351 14.1224C15.599 14.4713 14.976 14.4594 14.5536 14.094Z" fill="white"/>
<path d="M14.5536 14.094L7.08789 7.63721H24.1417L16.0351 14.1224C15.599 14.4713 14.976 14.4594 14.5536 14.094Z" fill="url(#paint1_linear_1196_6451)"/>
<circle cx="24" cy="8" r="4" fill="white"/>
<circle cx="24" cy="8" r="2" fill="#FF3A7A"/>
<defs>
<linearGradient id="paint0_linear_1196_6451" x1="4.87305" y1="15.5028" x2="26.1349" y2="15.5028" gradientUnits="userSpaceOnUse">
<stop stop-color="#932FDF"/>
<stop offset="0.495" stop-color="#FF2985"/>
<stop offset="1" stop-color="#FFB728"/>
</linearGradient>
<linearGradient id="paint1_linear_1196_6451" x1="7.08789" y1="11.1808" x2="24.1417" y2="11.1808" gradientUnits="userSpaceOnUse">
<stop stop-color="#932FDF"/>
<stop offset="0.495" stop-color="#FF2985"/>
<stop offset="1" stop-color="#FFB728"/>
</linearGradient>
</defs>
</svg>
