<svg width="80" height="80" viewBox="0 0 80 80" fill="none" xmlns="http://www.w3.org/2000/svg">
<rect x="16.4452" y="13.6781" width="47.1918" height="51.6438" rx="1.33562" stroke="#151F39" stroke-width="0.890411"/>
<rect x="16.4452" y="19.9109" width="47.1918" height="51.6438" rx="1.33562" stroke="#151F39" stroke-width="0.890411"/>
<rect x="16.4452" y="7.44521" width="47.1918" height="51.6438" rx="1.33562" fill="#151F39" stroke="#151F39" stroke-width="0.890411"/>
<rect x="22.6776" y="17.2398" width="33.8356" height="5.34247" rx="1.33562" stroke="white" stroke-width="0.890411"/>
<circle cx="32.0269" cy="11.4521" r="1.33562" stroke="white" stroke-width="0.890411"/>
<circle cx="47.1646" cy="11.4521" r="1.33562" stroke="white" stroke-width="0.890411"/>
<path d="M50.693 31.0717L50.6634 48.7956L52.202 50.4526V50.6301H43.3549V50.4526L44.8935 48.7956V33.6164L42.8223 33.2613V33.0838L50.5154 30.2728H50.693V31.0717Z" fill="white"/>
<path d="M41.9201 30.6575V30.8054L35.3513 37.818V37.966C39.1387 37.7884 41.8905 39.5342 41.8905 42.7298C41.8905 45.955 38.399 52.1983 27.0664 50.3342L27.096 43.8542L27.2735 43.8246C30.9722 47.0794 34.4045 48.3517 36.5053 48.3517C37.7776 48.3517 39.405 47.9967 39.405 46.3101C39.405 44.949 38.2215 42.7002 30.7946 42.5227L30.6763 42.286L36.8012 35.3621H31.0017C29.3152 35.3621 28.102 36.2498 27.599 38.1435H27.4215V30.835L27.5694 30.6575H41.9201Z" fill="white"/>
</svg>
