<svg width="80" height="80" viewBox="0 0 80 80" fill="none" xmlns="http://www.w3.org/2000/svg">
<circle cx="26.2273" cy="30.2273" r="23.2273" fill="#151F39"/>
<path d="M31.4629 36.6655H31.6212L31.6739 41.7561L31.5156 41.9144H19.6463V41.7034L26.6096 37.0084L26.5833 36.9292C26.1613 37.0084 25.8184 37.0611 25.6337 37.0611C20.8596 37.0611 17.3779 32.9464 17.3779 27.803C17.3779 20.0748 24.4204 18.4922 25.581 18.4922C30.276 18.4922 33.8104 22.6069 33.8104 27.7503C33.8104 32.2079 31.4629 34.6081 29.2737 35.8742L29.3792 35.8214L25.1062 38.6173V38.6701L28.7461 38.6965C30.7771 38.6965 31.1991 37.4568 31.4629 36.6655ZM22.6796 28.2514C24.5523 33.1838 26.9789 36.0324 28.7198 35.5049C30.1441 35.0301 30.1705 31.654 28.1131 26.537C26.2668 21.9211 24.0775 19.5736 22.4422 20.0484C21.0706 20.4968 20.8069 23.3191 22.6796 28.2514Z" fill="white"/>
<circle cx="52.7732" cy="48.8091" r="22.5637" stroke="#151F39" stroke-width="1.32727"/>
<path d="M49.6586 38.9478H55.5863L62.147 58.1984V58.3711H54.3489V58.1984L55.8165 56.7021L54.09 51.6377H49.3708C49.4284 54.3713 50.1478 56.7309 51.4426 58.1984V58.3711H44.0762V58.1984L50.8959 42.6022L49.6586 39.1204V38.9478ZM49.3708 51.1197H53.9173L51.2988 43.4079H51.1261L50.4643 45.2783C49.7737 47.2638 49.4284 49.2781 49.3708 51.1197Z" fill="#151F39"/>
</svg>
