<svg width="140" height="140" viewBox="0 0 140 140" fill="none" xmlns="http://www.w3.org/2000/svg">
<circle cx="70.5" cy="70.5" r="62" stroke="black"/>
<path d="M75.4623 42.6511C75.2764 51.5071 61.2137 49.1164 55.2225 57.2384C53.4239 59.6766 58.2313 62.1403 62.7991 65.6647C66.2486 68.3264 69.5616 71.5932 69.7894 75.9112C70.0667 81.1559 45.994 81.6938 45.1837 93.2536C44.7459 99.4989 73.555 108.399 54.808 109.637C1.02936 113.19 41.652 101.3 42.5382 100.834C60.7365 91.2773 56.4436 91.5561 35.9568 73.2644C15.5118 55.01 53.3419 65.0573 51.755 52.391C50.653 43.5949 43.8193 38.8883 59.8711 32.5288C68.3406 29.1734 76.2936 28.0888 83.0208 36.1034C85.6574 39.2439 83.7094 42.3393 90.5441 41.8033C90.6256 41.7966 85.3041 51.5028 91.7498 53.6567C96.033 55.088 103.948 51.0295 99.2731 47.7937C96.273 45.7175 84.5728 58.0673 100.793 66.8916C120.904 77.8318 109.9 75.407 102.952 80.9206C92.0439 89.5763 101.324 99.1272 114 100.025M62.8603 65.6839C64.8366 65.36 67.083 65.3157 69.0538 65.4984C73.3005 67.2881 74.9682 77.9291 71.434 80.1026C66.8689 82.9102 74.2965 80.223 77.8425 81.9138C79.3713 82.6424 74.1875 87.2314 70.447 87.2314C70.447 85.919 80.1305 85.8844 80.6728 87.4949C82.7789 93.7477 70.3467 95.3346 70.8529 88.9152C70.9654 87.4878 69.6079 88.612 70.1874 88.623C72.4939 88.6673 79.489 88.5893 81.459 86.8887M76.9116 65.5165C79.7662 60.4867 94.481 60.4832 100.817 60.4832M80.1548 69.2197C90.2096 64.3738 98.9888 72.1304 80.0454 72.4539C79.8576 72.457 83.298 73.6236 87.5086 72.8166C92.2827 71.9014 97.9007 68.9985 97.6744 68.9985M61.3761 80.7214C65.8784 92.1133 72.1975 101.547 78.3757 98.2492C89.2908 92.4235 96.5969 68.6436 94.0147 57.4062C93.8379 56.6369 93.6124 55.9773 93.0156 55.468" stroke="black" stroke-width="0.606412" stroke-miterlimit="22.9256" stroke-linecap="round" stroke-linejoin="round"/>
<circle cx="114" cy="23" r="13" fill="#70C5A3"/>
<path d="M109 22.08L112.96 26.04L120 19" stroke="white" stroke-width="1.76"/>
</svg>
